<svg width="32" height="32" viewBox="0 0 32 32" fill="none" xmlns="http://www.w3.org/2000/svg">
  <rect width="32" height="32" rx="16" fill="#1D4ED8"/>
  <path d="M16 8C12.6863 8 10 10.6863 10 14V16C10 16.7364 10.2299 17.4275 10.6346 18H9C8.44772 18 8 18.4477 8 19V21C8 21.5523 8.44772 22 9 22H10V23C10 23.5523 10.4477 24 11 24H13C13.5523 24 14 23.5523 14 23V22H18V23C18 23.5523 18.4477 24 19 24H21C21.5523 24 22 23.5523 22 23V22H23C23.5523 22 24 21.5523 24 21V19C24 18.4477 23.5523 18 23 18H21.3654C21.7701 17.4275 22 16.7364 22 16V14C22 10.6863 19.3137 8 16 8ZM14 16C13.4477 16 13 15.5523 13 15C13 14.4477 13.4477 14 14 14C14.5523 14 15 14.4477 15 15C15 15.5523 14.5523 16 14 16ZM18 16C17.4477 16 17 15.5523 17 15C17 14.4477 17.4477 14 18 14C18.5523 14 19 14.4477 19 15C19 15.5523 18.5523 16 18 16Z" fill="white"/>
</svg>
